<mxfile host="app.diagrams.net" modified="2020-07-13T13:26:04.017Z" agent="5.0 (Windows NT 10.0; Win64; x64) AppleWebKit/537.36 (KHTML, like Gecko) Chrome/83.0.4103.116 Safari/537.36" etag="cxFVjxHQ29YAvL3_Gooj" version="13.4.2" type="github">
  <diagram id="kgpKYQtTHZ0yAKxKKP6v" name="Page-1">
    <mxGraphModel dx="1422" dy="828" grid="1" gridSize="10" guides="1" tooltips="1" connect="1" arrows="1" fold="1" page="1" pageScale="1" pageWidth="850" pageHeight="1100" math="0" shadow="0">
      <root>
        <mxCell id="0" />
        <mxCell id="1" parent="0" />
        <mxCell id="CK65BjCgghkq_DTN6lFj-6" value="Pool" style="swimlane;html=1;childLayout=stackLayout;startSize=20;rounded=0;shadow=0;comic=0;labelBackgroundColor=none;strokeWidth=1;fontFamily=Verdana;fontSize=12;align=center;" vertex="1" parent="1">
          <mxGeometry x="40" y="20" width="810" height="950" as="geometry" />
        </mxCell>
        <mxCell id="CK65BjCgghkq_DTN6lFj-7" value="用户" style="swimlane;html=1;startSize=20;" vertex="1" parent="CK65BjCgghkq_DTN6lFj-6">
          <mxGeometry y="20" width="200" height="930" as="geometry" />
        </mxCell>
        <mxCell id="CK65BjCgghkq_DTN6lFj-1" value="&lt;font color=&quot;#ffffff&quot;&gt;开始&lt;/font&gt;" style="ellipse;whiteSpace=wrap;html=1;rounded=0;shadow=0;comic=0;labelBackgroundColor=none;strokeWidth=1;fillColor=#000000;fontFamily=Verdana;fontSize=12;align=center;" vertex="1" parent="CK65BjCgghkq_DTN6lFj-7">
          <mxGeometry x="100" y="55" width="40" height="40" as="geometry" />
        </mxCell>
        <mxCell id="CK65BjCgghkq_DTN6lFj-11" value="配网应用" style="swimlane;html=1;startSize=20;" vertex="1" parent="CK65BjCgghkq_DTN6lFj-6">
          <mxGeometry x="200" y="20" width="310" height="930" as="geometry" />
        </mxCell>
        <mxCell id="CK65BjCgghkq_DTN6lFj-22" style="edgeStyle=orthogonalEdgeStyle;rounded=0;orthogonalLoop=1;jettySize=auto;html=1;exitX=0.5;exitY=1;exitDx=0;exitDy=0;dashed=1;" edge="1" parent="CK65BjCgghkq_DTN6lFj-11" source="CK65BjCgghkq_DTN6lFj-4" target="CK65BjCgghkq_DTN6lFj-21">
          <mxGeometry relative="1" as="geometry" />
        </mxCell>
        <mxCell id="CK65BjCgghkq_DTN6lFj-4" value="存储账户配网信息" style="rounded=1;whiteSpace=wrap;html=1;shadow=0;comic=0;labelBackgroundColor=none;strokeWidth=1;fontFamily=Verdana;fontSize=12;align=center;arcSize=50;" vertex="1" parent="CK65BjCgghkq_DTN6lFj-11">
          <mxGeometry x="85" y="212" width="100" height="30" as="geometry" />
        </mxCell>
        <mxCell id="CK65BjCgghkq_DTN6lFj-14" style="edgeStyle=orthogonalEdgeStyle;rounded=0;orthogonalLoop=1;jettySize=auto;html=1;exitX=0.5;exitY=1;exitDx=0;exitDy=0;entryX=0.5;entryY=0;entryDx=0;entryDy=0;" edge="1" parent="CK65BjCgghkq_DTN6lFj-11" source="CK65BjCgghkq_DTN6lFj-2" target="CK65BjCgghkq_DTN6lFj-4">
          <mxGeometry relative="1" as="geometry" />
        </mxCell>
        <mxCell id="CK65BjCgghkq_DTN6lFj-2" value="设备配网" style="rounded=1;whiteSpace=wrap;html=1;shadow=0;comic=0;labelBackgroundColor=none;strokeWidth=1;fontFamily=Verdana;fontSize=12;align=center;arcSize=50;" vertex="1" parent="CK65BjCgghkq_DTN6lFj-11">
          <mxGeometry x="85" y="132" width="100" height="30" as="geometry" />
        </mxCell>
        <mxCell id="CK65BjCgghkq_DTN6lFj-20" style="edgeStyle=orthogonalEdgeStyle;rounded=0;orthogonalLoop=1;jettySize=auto;html=1;exitX=0.5;exitY=1;exitDx=0;exitDy=0;entryX=0.5;entryY=0;entryDx=0;entryDy=0;dashed=1;" edge="1" parent="CK65BjCgghkq_DTN6lFj-11" source="CK65BjCgghkq_DTN6lFj-17" target="CK65BjCgghkq_DTN6lFj-2">
          <mxGeometry relative="1" as="geometry" />
        </mxCell>
        <mxCell id="CK65BjCgghkq_DTN6lFj-17" value="其他Action" style="rounded=1;whiteSpace=wrap;html=1;shadow=0;comic=0;labelBackgroundColor=none;strokeWidth=1;fontFamily=Verdana;fontSize=12;align=center;arcSize=50;" vertex="1" parent="CK65BjCgghkq_DTN6lFj-11">
          <mxGeometry x="85" y="60" width="100" height="30" as="geometry" />
        </mxCell>
        <mxCell id="CK65BjCgghkq_DTN6lFj-30" style="edgeStyle=orthogonalEdgeStyle;rounded=0;orthogonalLoop=1;jettySize=auto;html=1;exitX=0.5;exitY=1;exitDx=0;exitDy=0;entryX=0.5;entryY=0;entryDx=0;entryDy=0;" edge="1" parent="CK65BjCgghkq_DTN6lFj-11" source="CK65BjCgghkq_DTN6lFj-21" target="CK65BjCgghkq_DTN6lFj-29">
          <mxGeometry relative="1" as="geometry" />
        </mxCell>
        <mxCell id="CK65BjCgghkq_DTN6lFj-21" value="其他Action" style="rounded=1;whiteSpace=wrap;html=1;shadow=0;comic=0;labelBackgroundColor=none;strokeWidth=1;fontFamily=Verdana;fontSize=12;align=center;arcSize=50;" vertex="1" parent="CK65BjCgghkq_DTN6lFj-11">
          <mxGeometry x="85" y="291" width="100" height="30" as="geometry" />
        </mxCell>
        <mxCell id="CK65BjCgghkq_DTN6lFj-23" value="本地搜索网络" style="rounded=1;whiteSpace=wrap;html=1;shadow=0;comic=0;labelBackgroundColor=none;strokeWidth=1;fontFamily=Verdana;fontSize=12;align=center;arcSize=50;" vertex="1" parent="CK65BjCgghkq_DTN6lFj-11">
          <mxGeometry x="20" y="455" width="100" height="30" as="geometry" />
        </mxCell>
        <mxCell id="CK65BjCgghkq_DTN6lFj-27" value="" style="whiteSpace=wrap;html=1;rounded=0;shadow=0;comic=0;labelBackgroundColor=none;strokeWidth=1;fillColor=#000000;fontFamily=Verdana;fontSize=12;align=center;rotation=0;" vertex="1" parent="CK65BjCgghkq_DTN6lFj-11">
          <mxGeometry x="61.5" y="540" width="147" height="10" as="geometry" />
        </mxCell>
        <mxCell id="CK65BjCgghkq_DTN6lFj-29" value="新设备配网" style="rounded=1;whiteSpace=wrap;html=1;shadow=0;comic=0;labelBackgroundColor=none;strokeWidth=1;fontFamily=Verdana;fontSize=12;align=center;arcSize=50;" vertex="1" parent="CK65BjCgghkq_DTN6lFj-11">
          <mxGeometry x="85" y="380" width="100" height="30" as="geometry" />
        </mxCell>
        <mxCell id="CK65BjCgghkq_DTN6lFj-28" value="获取账户配网信息" style="rounded=1;whiteSpace=wrap;html=1;shadow=0;comic=0;labelBackgroundColor=none;strokeWidth=1;fontFamily=Verdana;fontSize=12;align=center;arcSize=50;" vertex="1" parent="CK65BjCgghkq_DTN6lFj-11">
          <mxGeometry x="170" y="455" width="100" height="30" as="geometry" />
        </mxCell>
        <mxCell id="CK65BjCgghkq_DTN6lFj-12" value="家居云" style="swimlane;html=1;startSize=20;" vertex="1" parent="CK65BjCgghkq_DTN6lFj-6">
          <mxGeometry x="510" y="20" width="250" height="930" as="geometry" />
        </mxCell>
        <mxCell id="CK65BjCgghkq_DTN6lFj-15" value="存储账户配网信息" style="rounded=1;whiteSpace=wrap;html=1;shadow=0;comic=0;labelBackgroundColor=none;strokeWidth=1;fontFamily=Verdana;fontSize=12;align=center;arcSize=50;" vertex="1" parent="CK65BjCgghkq_DTN6lFj-12">
          <mxGeometry x="90" y="212" width="100" height="30" as="geometry" />
        </mxCell>
        <mxCell id="CK65BjCgghkq_DTN6lFj-24" value="Data" style="shape=note;whiteSpace=wrap;html=1;rounded=0;shadow=0;comic=0;labelBackgroundColor=none;strokeWidth=1;fontFamily=Verdana;fontSize=12;align=center;size=20;" vertex="1" parent="CK65BjCgghkq_DTN6lFj-12">
          <mxGeometry x="93" y="320" width="95" height="45" as="geometry" />
        </mxCell>
        <mxCell id="CK65BjCgghkq_DTN6lFj-26" style="edgeStyle=none;rounded=0;html=1;dashed=1;labelBackgroundColor=none;startArrow=none;startFill=0;startSize=5;endArrow=oval;endFill=0;endSize=5;jettySize=auto;orthogonalLoop=1;strokeWidth=1;fontFamily=Verdana;fontSize=12;exitX=0.5;exitY=0;exitDx=0;exitDy=0;exitPerimeter=0;" edge="1" parent="CK65BjCgghkq_DTN6lFj-12" source="CK65BjCgghkq_DTN6lFj-24">
          <mxGeometry relative="1" as="geometry">
            <mxPoint x="170.9999999999999" y="217" as="sourcePoint" />
            <mxPoint x="139.9999999999999" y="242" as="targetPoint" />
          </mxGeometry>
        </mxCell>
        <mxCell id="CK65BjCgghkq_DTN6lFj-16" style="edgeStyle=orthogonalEdgeStyle;rounded=0;orthogonalLoop=1;jettySize=auto;html=1;exitX=1;exitY=0.5;exitDx=0;exitDy=0;entryX=0;entryY=0.5;entryDx=0;entryDy=0;" edge="1" parent="CK65BjCgghkq_DTN6lFj-6" source="CK65BjCgghkq_DTN6lFj-4" target="CK65BjCgghkq_DTN6lFj-15">
          <mxGeometry relative="1" as="geometry" />
        </mxCell>
        <mxCell id="CK65BjCgghkq_DTN6lFj-18" style="edgeStyle=orthogonalEdgeStyle;rounded=0;orthogonalLoop=1;jettySize=auto;html=1;exitX=1;exitY=0.5;exitDx=0;exitDy=0;entryX=0;entryY=0.5;entryDx=0;entryDy=0;" edge="1" parent="CK65BjCgghkq_DTN6lFj-6" source="CK65BjCgghkq_DTN6lFj-1" target="CK65BjCgghkq_DTN6lFj-17">
          <mxGeometry relative="1" as="geometry" />
        </mxCell>
      </root>
    </mxGraphModel>
  </diagram>
</mxfile>
